<svg width="179" height="196" viewBox="0 0 179 196" fill="none" xmlns="http://www.w3.org/2000/svg">
<path d="M23.9486 83.2357C23.3578 83.8163 23.3495 84.7661 23.9301 85.3569C24.5108 85.9478 25.4605 85.9561 26.0514 85.3754L23.9486 83.2357ZM26.0514 85.3754L97.1714 15.4859L95.0687 13.3462L23.9486 83.2357L26.0514 85.3754Z" fill="black"/>
<path d="M97.078 12.957L96.035 11.879L93.879 13.965L94.922 15.043L97.078 12.957ZM163.34 85.7551C163.917 86.3505 164.866 86.3661 165.461 85.7901C166.057 85.214 166.073 84.2644 165.496 83.669L163.34 85.7551ZM94.922 15.043L163.34 85.7551L165.496 83.669L97.078 12.957L94.922 15.043Z" fill="black"/>
<path d="M26.7587 108.931C26.1676 108.351 25.2179 108.359 24.6375 108.95C24.0571 109.542 24.0657 110.491 24.6569 111.072L26.7587 108.931ZM24.6569 111.072L95.9491 181.07L98.0509 178.93L26.7587 108.931L24.6569 111.072Z" fill="black"/>
<path d="M167.137 110.25C167.724 109.665 167.727 108.716 167.143 108.128C166.559 107.541 165.609 107.538 165.021 108.123L167.137 110.25ZM97.0578 179.957L167.137 110.25L165.021 108.123L94.9422 177.83L97.0578 179.957Z" fill="black"/>
<line x1="32.7078" y1="75.0014" x2="32.7078" y2="116.001" stroke="black" stroke-width="2"/>
<line x1="43.2078" y1="126.005" x2="43.2078" y2="64.9973" stroke="black" stroke-width="2"/>
<line x1="66.7078" y1="150.001" x2="66.7078" y2="42.0014" stroke="black" stroke-width="2"/>
<line x1="96" y1="178" x2="96" y2="14" stroke="black" stroke-width="2"/>
<circle cx="142.5" cy="81.5" r="3.5" fill="black"/>
<circle cx="5" cy="5" r="5" transform="matrix(1 0 0 -1 123 75)" fill="black"/>
<circle cx="8" cy="8" r="8" transform="matrix(1 0 0 -1 102 106)" fill="black"/>
<circle cx="8" cy="8" r="8" transform="matrix(1 0 0 -1 102 131)" fill="black"/>
<circle cx="8" cy="8" r="8" transform="matrix(1 0 0 -1 102 156)" fill="black"/>
<circle cx="8" cy="8" r="8" transform="matrix(1 0 0 -1 102 81)" fill="black"/>
<circle cx="8" cy="8" r="8" transform="matrix(1 0 0 -1 102 58)" fill="black"/>
<circle cx="5" cy="5" r="5" transform="matrix(1 0 0 -1 123 112)" fill="black"/>
<circle cx="5" cy="5" r="5" transform="matrix(1 0 0 -1 123 93)" fill="black"/>
<circle cx="5" cy="5" r="5" transform="matrix(1 0 0 -1 123 131)" fill="black"/>
<circle cx="3.5" cy="3.5" r="3.5" transform="matrix(1 0 0 -1 139 102)" fill="black"/>
<circle cx="3.5" cy="3.5" r="3.5" transform="matrix(1 0 0 -1 139 119)" fill="black"/>
</svg>
