<?xml version="1.0" standalone="no"?>
<!DOCTYPE svg PUBLIC "-//W3C//DTD SVG 20010904//EN"
 "http://www.w3.org/TR/2001/REC-SVG-20010904/DTD/svg10.dtd">
<svg version="1.0" xmlns="http://www.w3.org/2000/svg"
 width="533.000000pt" height="576.000000pt" viewBox="0 0 533.000000 576.000000"
 preserveAspectRatio="xMidYMid meet">

<g transform="translate(0.000000,576.000000) scale(0.100000,-0.100000)"
fill="#000000" stroke="#fffff">
<path d="M0 2880 l0 -2880 2665 0 2665 0 0 2880 0 2880 -2665 0 -2665 0 0
-2880z m2094 2772 c-131 -95 -141 -100 -254 -106 -91 -4 -185 -19 -255 -40
-11 -4 25 16 80 43 153 76 324 128 429 130 l39 1 -39 -28z m511 -38 c105 -30
277 -103 390 -166 103 -57 319 -197 313 -203 -23 -19 -194 -135 -200 -135 -5
0 -41 22 -81 48 -262 175 -552 309 -764 353 -35 7 -63 15 -63 19 0 3 42 35 93
71 l92 66 80 -18 c45 -9 108 -25 140 -35z m-480 -123 c95 -19 254 -69 338
-105 l39 -17 -39 -28 c-21 -15 -73 -51 -115 -79 l-77 -52 -44 19 c-96 41 -275
93 -390 113 -101 17 -149 19 -282 15 -152 -5 -182 -9 -340 -53 -11 -3 47 32
129 77 153 84 201 102 341 125 108 18 313 11 440 -15z m782 -357 c150 -105
308 -238 471 -399 l153 -150 -112 -67 -113 -67 -90 91 c-221 220 -514 446
-720 554 -31 16 -56 31 -56 34 0 3 50 39 112 81 l112 76 76 -44 c41 -25 116
-74 167 -109z m-1908 -195 c-34 -69 -85 -208 -113 -309 -39 -146 -58 -279 -65
-465 l-6 -169 -70 -27 c-38 -15 -94 -37 -124 -48 l-54 -22 6 198 c4 139 12
232 27 313 23 129 82 314 130 412 29 59 37 68 88 92 68 32 160 64 185 65 16 1
16 -2 -4 -40z m2071 -409 c148 -149 282 -302 410 -470 l72 -95 -23 -15 c-12
-8 -75 -43 -139 -77 l-118 -63 -57 76 c-151 200 -367 437 -548 601 l-88 79
133 85 133 86 40 -31 c22 -17 105 -96 185 -176z m-1923 -137 c-12 -169 9 -477
48 -679 8 -43 11 -81 7 -85 -4 -3 -57 -29 -119 -57 -96 -43 -113 -48 -117 -34
-10 35 -36 191 -50 302 -21 167 -30 352 -21 473 l7 106 116 40 c65 22 122 40
127 40 7 1 8 -35 2 -106z m2586 -50 c176 -221 428 -597 411 -613 -14 -13 -215
-122 -219 -118 -1 1 -29 46 -60 98 -93 155 -230 350 -342 490 -58 72 -103 133
-100 136 8 9 202 123 209 124 4 0 49 -53 101 -117z m608 -231 c116 -180 339
-595 339 -631 0 -9 -199 -126 -205 -119 -2 2 -45 86 -95 188 -98 197 -136 265
-238 428 -35 57 -62 105 -60 106 11 9 194 116 198 116 3 0 30 -39 61 -88z
m-3511 -314 c0 -99 59 -403 116 -607 24 -84 44 -158 44 -162 0 -9 -212 -119
-228 -119 -11 0 -97 312 -126 460 -24 118 -59 361 -54 365 7 5 234 94 241 95
4 0 7 -15 7 -32z m3488 -375 c115 -240 229 -523 217 -542 -5 -10 -227 -133
-230 -128 -1 1 -19 52 -40 112 -51 147 -133 342 -206 486 l-59 118 108 60 c59
33 112 60 118 60 6 1 47 -74 92 -166z m-3632 -627 c37 -110 96 -265 151 -393
3 -7 -42 -35 -118 -73 -95 -48 -124 -59 -130 -48 -54 82 -279 776 -258 792 2
1 58 25 124 52 l120 51 33 -121 c18 -67 53 -183 78 -260z m3457 98 c74 -179
195 -589 183 -620 -5 -12 -265 -149 -270 -142 -2 2 -17 61 -35 131 -38 148
-93 323 -144 452 -20 50 -37 96 -39 103 -3 13 249 154 266 149 6 -2 23 -35 39
-73z m485 -301 c38 -156 56 -245 76 -384 25 -166 33 -148 -101 -222 l-117 -66
-22 152 c-23 156 -58 328 -92 452 l-19 70 111 62 c61 34 116 62 122 63 5 0 24
-57 42 -127z m-3024 -40 c57 -117 177 -323 279 -476 70 -106 100 -160 93 -165
-17 -13 -204 -122 -210 -122 -18 0 -297 445 -379 605 l-46 89 77 44 c42 25 91
53 107 63 17 10 35 19 40 19 6 0 23 -26 39 -57z m3420 -243 c21 -165 32 -422
19 -444 -5 -10 -57 -44 -114 -77 l-104 -58 -7 192 c-5 169 -15 280 -33 382 -6
29 -3 32 102 91 71 41 110 58 115 50 3 -6 13 -67 22 -136z m-4049 -190 c76
-148 197 -351 292 -488 35 -52 63 -95 61 -97 -26 -22 -242 -134 -247 -128 -64
90 -196 298 -255 401 -80 140 -169 312 -164 317 3 3 241 123 245 124 1 1 32
-57 68 -129z m745 -465 c54 -71 137 -174 184 -228 l86 -97 -55 -35 c-30 -20
-81 -51 -112 -70 l-58 -35 -20 24 c-108 128 -205 248 -267 331 -86 115 -218
311 -218 322 0 5 50 36 111 70 l112 61 70 -106 c38 -59 113 -165 167 -237z
m3016 43 c-5 -156 -26 -352 -38 -363 -11 -11 -229 -127 -233 -124 -2 2 3 48
11 103 8 54 18 175 22 269 l7 172 115 62 c63 34 117 63 119 63 2 0 1 -82 -3
-182z m-2585 15 c112 -137 251 -284 374 -396 66 -60 121 -112 123 -116 3 -9
-201 -151 -217 -151 -30 0 -348 333 -509 532 -57 70 -61 78 -45 88 80 49 199
118 204 119 3 1 35 -34 70 -76z m2872 -90 c-12 -85 -58 -264 -90 -353 l-35
-96 -101 -57 c-55 -32 -101 -56 -103 -54 -2 2 9 39 25 83 25 68 41 133 89 363
6 31 17 41 107 92 55 32 103 58 107 58 4 1 4 -16 1 -36z m-642 -430 c-20 -119
-56 -256 -85 -325 -15 -34 -29 -44 -147 -104 -72 -36 -133 -63 -135 -61 -2 2
7 36 20 75 30 88 56 201 70 310 l11 83 140 73 c77 40 141 71 143 70 2 -1 -6
-55 -17 -121z m-2178 -73 c178 -161 380 -314 520 -395 26 -15 47 -30 47 -34 0
-4 -50 -42 -111 -85 l-111 -79 -32 18 c-66 38 -235 163 -345 256 -137 115
-297 267 -289 275 7 6 211 133 217 134 2 0 48 -41 104 -90z m2403 -100 c-64
-148 -143 -273 -238 -376 -33 -35 -174 -131 -308 -209 -8 -5 17 26 57 67 113
121 201 261 263 423 l27 70 114 62 c63 34 115 58 117 53 2 -5 -13 -46 -32 -90z
m83 -157 c-28 -35 -93 -90 -168 -141 -115 -80 -119 -80 -51 -1 51 60 78 82
144 116 94 49 93 48 75 26z m-2382 -273 c151 -100 388 -222 532 -273 l93 -34
-87 -63 -88 -63 -69 16 c-161 39 -404 148 -593 266 -119 74 -154 101 -140 107
6 3 55 33 110 69 55 35 101 64 103 64 1 1 64 -40 139 -89z m1429 48 c32 -6 61
-12 63 -14 4 -4 -81 -140 -109 -172 l-19 -23 -83 15 c-46 9 -96 20 -113 24
l-29 8 79 65 c43 35 90 74 104 86 31 26 31 26 107 11z m-649 -94 c152 -63 412
-124 524 -124 21 0 39 -4 39 -9 0 -14 -92 -95 -153 -136 l-57 -38 -84 6 c-177
14 -388 72 -570 156 l-89 41 118 84 118 85 36 -16 c20 -8 73 -31 118 -49z
m1031 4 c-69 -98 -158 -175 -309 -267 l-153 -93 90 94 c49 52 103 114 118 139
25 38 43 51 145 101 64 31 120 57 124 57 5 1 -2 -14 -15 -31z m-763 -338 c44
-16 -221 -80 -333 -80 l-36 0 70 50 69 50 105 -6 c58 -4 114 -10 125 -14z"/>
</g>
</svg>
