<?xml version="1.0" standalone="no"?>
<!DOCTYPE svg PUBLIC "-//W3C//DTD SVG 20010904//EN"
 "http://www.w3.org/TR/2001/REC-SVG-20010904/DTD/svg10.dtd">
<svg version="1.0" xmlns="http://www.w3.org/2000/svg"
 width="248.000000pt" height="248.000000pt" viewBox="0 0 248.000000 248.000000"
 preserveAspectRatio="xMidYMid meet">

<g transform="translate(0.000000,248.000000) scale(0.100000,-0.100000)"
fill="#000000" stroke="none">
<path d="M1050 2254 c-317 -68 -602 -300 -725 -592 -68 -162 -90 -286 -83
-469 11 -277 103 -488 298 -684 155 -156 301 -234 521 -280 258 -53 549 17
774 186 489 369 545 1107 116 1548 -163 168 -357 269 -573 297 -103 13 -252
11 -328 -6z m422 -68 c287 -79 508 -276 631 -560 56 -131 79 -238 80 -381 1
-168 -28 -295 -103 -445 -37 -74 -108 -178 -159 -234 -82 -89 -259 -202 -387
-246 -74 -26 -220 -50 -301 -50 -34 0 -107 9 -161 19 -188 37 -342 113 -469
235 -124 117 -211 258 -269 436 -24 74 -28 106 -32 237 -4 165 4 241 43 358
78 239 263 454 490 567 73 37 191 76 265 87 102 16 271 5 372 -23z"/>
<path d="M1044 2180 c-293 -76 -504 -248 -635 -515 -77 -158 -93 -229 -93
-425 0 -189 14 -258 83 -405 134 -286 355 -462 666 -530 107 -23 307 -16 415
15 326 93 565 340 662 685 31 108 33 352 4 460 -65 242 -217 460 -409 586 -97
64 -158 90 -296 125 -120 31 -289 33 -397 4z m305 -153 c54 -74 104 -144 110
-156 8 -15 10 -56 5 -136 l-7 -114 -41 21 c-23 11 -69 39 -103 60 l-63 40 -2
196 c-1 215 -14 166 -17 -64 -1 -102 -4 -123 -18 -136 -32 -28 -167 -107 -175
-102 -5 3 -8 33 -9 67 0 34 -4 84 -8 110 -8 49 -8 49 59 141 127 175 151 206
160 206 6 0 54 -60 109 -133z m-344 -383 c-5 -38 -10 -43 -95 -92 -92 -54
-150 -74 -150 -53 0 7 53 85 118 173 l117 161 8 -74 c5 -41 6 -92 2 -115z
m611 6 c123 -175 119 -188 -26 -107 l-95 52 -2 115 -2 115 19 -25 c10 -14 58
-81 106 -150z m-286 9 c47 -28 136 -80 198 -116 61 -36 112 -68 112 -72 0 -4
-16 -15 -35 -24 -35 -17 -35 -17 -35 7 0 20 -26 39 -165 121 -109 64 -171 95
-182 91 -21 -9 -263 -155 -284 -172 -10 -9 -14 -25 -11 -49 2 -19 1 -35 -3
-35 -14 0 -96 53 -90 59 13 13 390 240 400 240 6 1 48 -22 95 -50z m62 -162
c66 -39 84 -54 77 -64 -22 -26 -46 -24 -81 9 -19 18 -62 47 -94 65 l-60 32
-102 -61 -103 -61 3 -130 3 -131 99 -58 c55 -33 104 -58 111 -56 6 2 57 30
113 63 l102 60 0 77 0 77 148 87 c81 48 150 88 153 90 4 2 10 -3 13 -11 6 -15
-105 -95 -225 -163 l-49 -27 0 -63 c0 -35 -5 -72 -10 -82 -6 -11 -64 -51 -129
-90 l-119 -71 -43 21 c-24 13 -80 47 -126 76 l-84 54 3 151 3 151 120 74 120
73 35 -21 c19 -11 74 -43 122 -71z m-577 -68 c113 -69 135 -86 135 -106 0 -24
-26 -14 -138 58 -80 50 -112 76 -112 90 0 10 4 19 8 19 4 0 53 -27 107 -61z
m415 -7 c0 -23 -8 -32 -45 -50 l-45 -22 0 -54 c0 -54 0 -54 45 -80 37 -22 45
-32 45 -56 0 -17 -4 -30 -8 -30 -5 0 -37 18 -71 40 l-62 40 3 82 3 83 60 37
c33 20 63 37 68 37 4 1 7 -12 7 -27z m80 -3 c32 -20 50 -38 50 -50 0 -24 -9
-24 -65 3 -37 18 -45 27 -45 50 0 15 2 28 5 28 3 0 27 -14 55 -31z m-512 -78
c104 -68 142 -99 142 -113 0 -26 -8 -23 -149 64 -141 87 -160 103 -154 129 3
11 8 18 12 17 3 -2 70 -45 149 -97z m1032 75 c0 -19 -24 -37 -144 -110 -80
-47 -149 -86 -155 -86 -17 0 -13 25 7 42 22 20 275 178 285 178 4 0 7 -11 7
-24z m-995 -194 c108 -68 110 -69 113 -109 4 -50 14 -60 167 -157 l119 -75 46
26 c25 14 89 54 142 89 99 64 104 71 110 139 3 27 17 38 138 112 74 46 140 83
147 83 7 0 13 -8 13 -18 0 -12 -39 -41 -122 -91 -68 -41 -129 -81 -135 -89 -7
-9 -13 -30 -13 -47 0 -41 -14 -53 -184 -163 l-139 -90 -56 36 c-205 130 -261
174 -261 205 0 36 -21 56 -127 123 -121 75 -159 107 -149 123 8 13 37 -2 191
-97z m-69 -58 c91 -57 127 -94 111 -111 -3 -2 -57 28 -121 69 -76 48 -116 79
-116 90 0 10 5 18 12 18 6 0 58 -29 114 -66z m594 47 c0 -12 -18 -30 -50 -50
-28 -17 -52 -31 -55 -31 -3 0 -5 13 -5 28 0 23 8 32 43 49 53 27 67 28 67 4z
m470 6 c0 -8 -8 -21 -17 -29 -22 -19 -199 -128 -208 -128 -3 0 -5 10 -3 22 2
16 32 41 102 85 101 64 126 74 126 50z m-922 -220 c41 -22 76 -45 78 -51 6
-15 32 -220 29 -224 -3 -4 -198 276 -216 310 -10 18 -8 19 13 13 12 -4 56 -26
96 -48z m766 41 c-4 -7 -38 -59 -76 -115 -37 -56 -68 -107 -68 -112 0 -5 -6
-16 -13 -23 -7 -7 -22 -26 -35 -42 -26 -34 -27 -30 -10 98 13 104 24 119 124
174 62 33 90 40 78 20z m-511 -195 l67 -43 1 -127 c0 -81 4 -121 9 -108 5 11
9 70 9 130 l1 110 101 63 c56 34 103 61 104 60 7 -9 -27 -222 -40 -247 -21
-42 -165 -231 -176 -231 -10 0 -118 134 -164 205 -27 40 -35 67 -44 134 -6 46
-11 97 -11 113 l0 30 38 -23 c20 -13 67 -42 105 -66z"/>
</g>
</svg>
