<svg width="86" height="14" viewBox="0 0 86 14" fill="none" xmlns="http://www.w3.org/2000/svg">
<path d="M2.16711 1.94995C11.5271 2.74233 20.8921 2.67587 30.2819 2.6909C39.9005 2.70629 49.5191 2.6985 59.1377 2.6909C66.5933 2.68501 74.393 3.09829 81.8601 2.50566C94.4699 1.50488 56.5663 3.28083 43.9483 4.17279C36.579 4.69373 29.2105 5.2272 21.8434 5.77818C19.565 5.94857 17.2866 6.11844 15.0102 6.3133C13.5398 6.43917 9.3332 6.21958 10.6263 6.93076C12.1514 7.7696 14.0944 7.24935 15.8335 7.32182C19.15 7.46001 24.2653 7.60888 27.4416 7.71287C40.5446 8.14184 29.0402 7.77462 42.5487 8.22742C44.8812 8.3056 47.2146 8.35972 49.5466 8.45382C51.8876 8.54828 54.645 7.74068 56.5444 9.11244C57.6982 9.94577 53.9162 10.2898 52.5103 10.512C48.1461 11.2017 43.7044 11.3732 39.2968 11.5411C36.3781 11.6523 40.8115 11.5823 41.4373 11.5823" stroke-linecap="round"/>
</svg>
